<?xml version="1.0" encoding="iso-8859-1"?>
<!-- Generator: Adobe Illustrator 19.0.0, SVG Export Plug-In . SVG Version: 6.00 Build 0)  -->
<svg version="1.1" id="Capa_1" xmlns="http://www.w3.org/2000/svg" xmlns:xlink="http://www.w3.org/1999/xlink" x="0px" y="0px"
	 viewBox="0 0 512.001 512.001" style="enable-background:new 0 0 512.001 512.001;" xml:space="preserve">
<path style="fill:#E2EEFD;" d="M364.114,151.055c8.602-2.084,17.588-3.189,26.831-3.189c62.71,0,113.546,50.837,113.546,113.546
	s-50.837,113.546-113.546,113.546c-10.043,0-19.781-1.304-29.055-3.752l2.057-44.288c7.795,2.989,16.259,4.628,25.106,4.628
	c38.734,0,70.135-31.4,70.135-70.135s-31.4-70.135-70.135-70.135c-8.784,0-17.19,1.615-24.938,4.563L364.114,151.055z"/>
<path style="fill:#C7DCF2;" d="M504.494,261.415c0,62.711-50.84,113.541-113.551,113.541c-10.04,0-19.779-1.301-29.048-3.744
	l0.611-13.133c4.004,0.43,8.078,0.651,12.212,0.651c62.711,0,113.551-50.83,113.551-113.541c0-27.227-9.589-52.221-25.585-71.78
	C488.198,194.219,504.494,225.91,504.494,261.415z"/>
<path style="fill:#00C37A;" d="M359.028,498.021H17.993c-5.791,0-10.485-4.695-10.485-10.485v-26.204
	c0-5.791,4.695-10.485,10.485-10.485h341.035c5.791,0,10.485,4.695,10.485,10.485v26.203
	C369.513,493.327,364.819,498.021,359.028,498.021z"/>
<path style="fill:#02A562;" d="M369.511,461.331v26.206c0,5.786-4.695,10.48-10.48,10.48h-14.945v-47.166h14.945
	C364.817,450.851,369.511,455.546,369.511,461.331z"/>
<path style="fill:#E2EEFD;" d="M284.932,450.847H92.088c-43.616,0-78.973-35.358-78.973-78.973V112.026
	c0-2.764,2.241-5.005,5.005-5.005h340.781c2.764,0,5.005,2.241,5.005,5.005v259.848
	C363.906,415.489,328.548,450.847,284.932,450.847z"/>
<path style="fill:#C7DCF2;" d="M358.901,107.024c2.764,0,5.005,2.241,5.005,5.005v259.845c0,43.613-35.355,78.977-78.977,78.977
	h-27.026c43.623,0,78.977-35.365,78.977-78.977v-264.85C336.879,107.024,358.901,107.024,358.901,107.024z"/>
<path style="fill:#00C37A;" d="M261.992,201.217l-47.402,25.402c-1.626,0.872-2.641,2.567-2.641,4.411v79.155
	c0,2.764,2.241,5.005,5.005,5.005h45.038h45.038c2.764,0,5.005-2.241,5.005-5.005v-79.155c0-1.845-1.015-3.54-2.641-4.411
	L261.992,201.217z"/>
<path style="fill:#02A562;" d="M312.035,231.036v79.148c0,2.763-2.242,5.005-5.005,5.005h-9.699v-76.545
	c0-1.932-1.061-3.704-2.763-4.615l-46.896-25.135l14.324-7.678l47.396,25.405C311.024,227.492,312.035,229.184,312.035,231.036z"/>
<path d="M390.946,140.359c-6.559,0-13.096,0.54-19.533,1.584v-29.915c0-6.9-5.612-12.512-12.512-12.512H269.5v-1.201
	c0-17.937-14.592-32.529-32.529-32.529s-32.529,14.592-32.529,32.529v1.201H18.121c-6.9,0-12.512,5.613-12.512,12.512v47.547
	c0,4.147,3.36,7.507,7.507,7.507s7.507-3.36,7.507-7.507v-45.044h233.862v82.196l-43.439,23.278
	c-4.074,2.181-6.605,6.407-6.605,11.03v79.154c0,6.9,5.612,12.512,12.512,12.512h90.076c6.9,0,12.512-5.612,12.512-12.512v-79.154
	c0-4.622-2.53-8.849-6.602-11.029l-43.441-23.279v-82.196h86.898c0,0-1.392,260.218-0.141,261.641
	c-2.23,37.413-33.362,67.172-71.325,67.172H92.088c-39.406,0-71.466-32.059-71.466-71.466v-164.59c0-4.147-3.36-7.507-7.507-7.507
	s-7.507,3.36-7.507,7.507v164.589c0,29.662,15.013,55.881,37.837,71.466H17.994C8.071,443.34,0,451.412,0,461.333v26.203
	c0,9.921,8.071,17.993,17.994,17.993h48.488c4.147,0,7.507-3.36,7.507-7.507c0-4.147-3.36-7.507-7.507-7.507H17.994
	c-1.643,0-2.979-1.335-2.979-2.978v-26.203c0-1.643,1.336-2.979,2.979-2.979h74.095h192.844h74.095c1.643,0,2.979,1.336,2.979,2.979
	v26.203c0,1.643-1.336,2.978-2.979,2.978H111.905c-4.147,0-7.507,3.36-7.507,7.507c0,4.147,3.36,7.507,7.507,7.507h247.123
	c9.922,0,17.994-8.071,17.994-17.993v-26.203c0-9.922-8.071-17.994-17.994-17.994h-25.452
	c20.502-13.999,34.701-36.578,37.378-62.526c6.583,1.094,13.273,1.653,19.993,1.653c66.75,0,121.055-54.304,121.055-121.055
	S457.696,140.359,390.946,140.359z M304.528,307.683h-85.071V232.53l42.536-22.794l42.536,22.794L304.528,307.683L304.528,307.683z
	 M219.456,99.514v-1.201c0-9.656,7.858-17.514,17.514-17.514c9.656,0,17.514,7.858,17.514,17.514v1.201H219.456z M371.413,201.315
	c5.702-1.672,11.613-2.529,17.64-2.529c34.533,0,62.626,28.094,62.626,62.626c0,34.533-28.094,62.626-62.626,62.626
	c-6.029,0-11.941-0.856-17.64-2.527V201.315z M390.946,367.452c-6.578,0-13.119-0.61-19.533-1.803v-28.612
	c5.75,1.337,11.65,2.017,17.64,2.017c42.812,0,77.641-34.83,77.641-77.641s-34.83-77.641-77.641-77.641
	c-5.915,0-11.747,0.659-17.431,1.964l-0.001-28.605c6.346-1.167,12.824-1.757,19.325-1.757c58.47,0,106.04,47.569,106.04,106.04
	S449.417,367.452,390.946,367.452z"/>
<path d="M64.286,87.776c4.147,0,7.507-3.36,7.507-7.507V65.15c0-4.147-3.36-7.507-7.507-7.507s-7.507,3.36-7.507,7.507v15.119
	C56.779,84.416,60.139,87.776,64.286,87.776z"/>
<path d="M125.924,87.776c4.147,0,7.507-3.36,7.507-7.507V40.109c0-4.147-3.36-7.507-7.507-7.507s-7.507,3.36-7.507,7.507v40.159
	C118.417,84.416,121.777,87.776,125.924,87.776z"/>
<path d="M94.448,87.776c4.147,0,7.507-3.36,7.507-7.507V13.98c0-4.147-3.36-7.507-7.507-7.507s-7.507,3.36-7.507,7.507v66.289
	C86.94,84.416,90.302,87.776,94.448,87.776z"/>
<path d="M156.161,87.776c4.147,0,7.507-3.36,7.507-7.507V13.98c0-4.147-3.36-7.507-7.507-7.507c-4.147,0-7.507,3.36-7.507,7.507
	v66.289C148.654,84.416,152.014,87.776,156.161,87.776z"/>
<g>
</g>
<g>
</g>
<g>
</g>
<g>
</g>
<g>
</g>
<g>
</g>
<g>
</g>
<g>
</g>
<g>
</g>
<g>
</g>
<g>
</g>
<g>
</g>
<g>
</g>
<g>
</g>
<g>
</g>
</svg>
